
<svg xmlns="http://www.w3.org/2000/svg" version="1.1" xmlns:xlink="http://www.w3.org/1999/xlink" preserveAspectRatio="none" x="0px" y="0px" width="193px" height="193px" viewBox="0 0 193 193">
<defs>
<g id="Layer0_0_FILL">
<path fill="#000000" stroke="none" d="
M 1526.7 476.1
L 1526.7 465.95 1423.35 465.95 1423.35 485.7 1494.45 485.7 1417.4 595.35 1417.4 606 1525.7 606 1525.7 586.35 1449.95 586.35 1526.7 476.1 Z"/>
</g>

<g id="Layer0_1_FILL">
<path fill="#FF0000" stroke="none" d="
M 1217.55 147
Q 1217.55 106.95 1189.3 78.65 1161 50.4 1120.95 50.4 1080.95 50.4 1052.65 78.65 1024.35 106.95 1024.35 147 1024.35 187 1052.65 215.3 1080.95 243.6 1120.95 243.6 1161 243.6 1189.3 215.3 1217.55 187 1217.55 147
M 1179.5 88.45
Q 1203.8 112.7 1203.8 147 1203.8 176.6 1185.75 198.7 1185.5 199.05 1185.1 199.2 1184.65 199.3 1184.25 199.2 1183.85 199.1 1183.55 198.8
L 1069.15 84.45
Q 1068.85 84.15 1068.75 83.75 1068.65 83.35 1068.8 82.95 1068.9 82.5 1069.25 82.25 1091.35 64.15 1120.95 64.15 1155.25 64.15 1179.5 88.45
M 1057.05 95.55
Q 1057.45 95.65 1057.75 95.95
L 1171.95 210.15
Q 1172.25 210.45 1172.4 210.9 1172.45 211.3 1172.35 211.7 1172.15 212.1 1171.85 212.4 1150 229.8 1120.95 229.8 1086.7 229.8 1062.4 205.55 1038.15 181.25 1038.15 147 1038.15 117.9 1055.55 96.1 1055.8 95.75 1056.2 95.6 1056.6 95.45 1057.05 95.55 Z"/>
</g>
</defs>

<g transform="matrix( 0.909423828125, 0, 0, 0.909423828125, -1241.9,-390.8) ">
<use xlink:href="#Layer0_0_FILL"/>
</g>

<g transform="matrix( 0.9945068359375, -0.104522705078125, 0.104522705078125, 0.9945068359375, -1033.45,67.65) ">
<use xlink:href="#Layer0_1_FILL"/>
</g>
</svg>
